<svg width="238" height="54" viewBox="0 0 238 54" fill="none" xmlns="http://www.w3.org/2000/svg">
<path d="M45.6256 12.8545C49.5256 12.8545 52.6256 14.5545 53.9256 16.9545V14.7545C53.9256 14.0545 54.4256 13.5545 55.0256 13.5545H60.0256C60.6256 13.5545 61.1256 14.0545 61.1256 14.7545V39.7545C61.1256 40.3545 60.6256 40.8545 60.0256 40.8545H55.0256C54.4256 40.8545 53.9256 40.3545 53.9256 39.7545V37.5545C52.5256 40.0545 49.4256 41.7545 45.5256 41.7545C38.4256 41.7545 31.8256 36.0545 31.8256 27.2545C31.9256 18.4545 38.4256 12.8545 45.6256 12.8545ZM46.6256 34.9545C50.8256 34.9545 53.9256 31.5545 53.9256 27.2545C53.9256 23.0545 50.8256 19.5545 46.6256 19.5545C42.4256 19.5545 39.2256 22.9545 39.2256 27.2545C39.2256 31.5545 42.4256 34.9545 46.6256 34.9545Z" fill="#4341AA"/>
<path d="M17.4256 12.8545C13.5256 12.8545 10.4256 14.5545 8.82557 16.9545V14.7545C8.82557 14.0545 8.32557 13.5545 7.72557 13.5545H2.72557C2.12557 13.5545 1.62557 14.0545 1.62557 14.7545L1.52557 50.9545V49.7545V50.0545V50.7545V51.3545C1.52557 51.9545 2.02557 52.4545 2.62557 52.4545H7.62557C8.22557 52.4545 8.72557 51.9545 8.72557 51.3545V50.7545V50.0545V49.7545V50.9545L8.82557 37.8545C10.4256 40.3545 13.8256 41.7545 17.2256 41.7545C24.5256 41.7545 30.8256 36.0545 30.8256 27.2545C30.9256 18.4545 24.6256 12.8545 17.4256 12.8545ZM16.2256 34.9545C12.0256 34.9545 8.82557 31.5545 8.82557 27.2545C8.82557 23.0545 12.0256 19.5545 16.2256 19.5545C20.4256 19.5545 23.5256 22.9545 23.5256 27.2545C23.5256 31.5545 20.4256 34.9545 16.2256 34.9545Z" fill="#4341AA"/>
<path d="M89.3256 13.6545H83.9256C83.1256 13.6545 82.6256 14.2545 82.4256 14.8545L80.1256 23.0545L76.7256 33.6545L71.0256 14.8545C70.8256 14.2545 70.4256 13.6545 69.8256 13.6545H64.0256C62.7256 13.6545 62.6256 14.4545 62.8256 15.3545L71.0256 39.7545C71.3256 40.4545 71.7256 40.8545 72.4256 40.8545H74.4256L70.5256 50.7545C70.1256 51.8545 70.4256 52.4545 71.5256 52.4545H76.9256C77.7256 52.4545 78.2256 51.8545 78.4256 51.2545L78.8256 49.9545L82.1256 40.8545L90.3256 15.3545C90.7256 14.3545 90.3256 13.6545 89.3256 13.6545Z" fill="#4341AA"/>
<path d="M138.926 13.1545C139.526 13.1545 140.226 13.4545 140.226 14.5545V19.4545C140.226 20.5545 139.326 20.8545 138.826 20.8545H137.526C133.926 20.8545 131.826 22.6545 131.826 27.4545V39.7545C131.826 40.3545 131.226 40.8545 130.626 40.8545H125.626C125.026 40.8545 124.526 40.3545 124.526 39.7545V14.7545C124.526 14.0545 125.026 13.5545 125.626 13.5545H130.326C130.926 13.5545 131.426 14.0545 131.426 14.6545V17.2545C132.826 14.8545 135.226 13.2545 138.126 13.2545H138.926V13.1545Z" fill="#08AF97"/>
<path d="M141.026 5.35452C141.026 2.85452 143.026 0.754517 145.626 0.754517C148.126 0.754517 150.126 2.85452 150.126 5.35452C150.126 7.85452 148.126 9.95452 145.626 9.95452C143.026 9.95452 141.026 7.85452 141.026 5.35452ZM143.126 40.8545C142.426 40.8545 141.926 40.2545 141.926 39.6545V14.6545C141.926 13.9545 142.426 13.4545 143.126 13.4545H148.026C148.726 13.4545 149.226 13.9545 149.226 14.6545V39.5545C149.226 40.1545 148.726 40.7545 148.026 40.7545H143.126V40.8545Z" fill="#08AF97"/>
<path d="M236.626 36.7545L234.926 33.9545C234.426 33.2545 233.526 33.2545 232.726 33.7545C231.726 34.3545 230.826 34.6545 230.126 34.6545C228.826 34.6545 227.026 33.8545 227.026 31.1545V19.6545H234.926C235.526 19.6545 236.126 19.0545 236.126 18.4545V14.7545C236.126 14.0545 235.526 13.5545 234.926 13.5545H227.026V9.2545V8.8545V7.7545C227.026 7.0545 226.526 6.5545 225.926 6.5545H220.926C220.226 6.5545 219.726 7.0545 219.726 7.7545V8.8545V9.2545V13.5545H216.026C215.426 13.5545 214.926 14.0545 214.926 14.7545V18.4545C214.926 19.0545 215.426 19.6545 216.026 19.6545H219.726V32.7545C219.726 38.8545 224.326 41.3545 228.826 41.3545C232.026 41.3545 234.826 40.3545 236.526 38.6545C237.026 38.0545 237.126 37.4545 236.626 36.7545Z" fill="#08AF97"/>
<path d="M174.326 40.7545V37.1545C172.926 39.3545 169.926 41.0545 166.026 41.0545C158.526 41.0545 152.226 35.7545 152.226 26.9545C152.226 18.1545 158.726 12.7545 165.826 12.7545C169.726 12.7545 172.926 14.5545 174.426 16.9545V14.7545C174.426 14.1545 174.926 13.6545 175.526 13.6545H180.426C181.126 13.6545 181.626 14.1545 181.626 14.7545V41.0545C181.626 48.6545 176.026 53.9545 166.926 53.9545C159.626 53.9545 154.226 49.3545 152.926 44.1545C152.726 43.6545 152.826 43.1545 153.526 43.0545H158.926C159.626 43.0545 160.026 43.1545 160.226 43.5545C160.826 45.5545 162.926 47.7545 167.126 47.7545C171.926 47.5545 174.326 44.8545 174.326 40.7545ZM166.926 34.5545C171.126 34.5545 174.226 31.3545 174.226 27.0545C174.226 22.7545 171.126 19.5545 166.926 19.5545C162.726 19.5545 159.626 22.7545 159.626 27.0545C159.626 31.2545 162.726 34.5545 166.926 34.5545Z" fill="#08AF97"/>
<path d="M108.826 12.6545C104.926 12.6545 101.726 14.4545 100.426 16.6545V10.9545L100.326 3.25451C100.326 2.65451 99.7256 2.15451 99.1256 2.15451H94.2256C93.5256 2.15451 93.0256 2.65451 93.0256 3.25451L93.1256 10.9545V39.6545C93.1256 40.2545 93.6256 40.7545 94.3256 40.7545H99.2256C99.8256 40.7545 100.326 40.2545 100.326 39.6545V37.4545C101.926 39.8545 104.826 41.5545 108.726 41.5545C115.926 41.5545 122.426 35.8545 122.426 27.0545C122.326 18.2545 115.826 12.6545 108.826 12.6545ZM107.626 34.7545C103.426 34.7545 100.326 31.3545 100.326 27.0545C100.326 22.8545 103.426 19.3545 107.626 19.3545C111.826 19.3545 115.026 22.7545 115.026 27.0545C115.026 31.3545 111.826 34.7545 107.626 34.7545Z" fill="#08AF97"/>
<path d="M202.226 12.6545C197.826 12.6545 194.726 14.4545 193.126 16.6545V10.6545V3.1545C193.126 2.5545 192.526 2.0545 191.926 2.0545H186.926C186.326 2.0545 185.826 2.5545 185.826 3.1545V10.6545V39.5545C185.826 40.1545 186.326 40.6545 186.926 40.6545H191.926C192.526 40.6545 193.126 40.1545 193.126 39.5545V26.4545C193.126 22.2545 195.826 19.3545 200.026 19.3545C204.226 19.3545 206.626 22.1545 206.626 26.4545V39.6545C206.626 40.2545 207.226 40.7545 207.826 40.7545H212.726C213.326 40.7545 213.926 40.2545 213.926 39.6545V24.4545C213.926 17.7545 209.426 12.6545 202.226 12.6545Z" fill="#08AF97"/>
</svg>
