<svg id="Layer_1" data-name="Layer 1" xmlns="http://www.w3.org/2000/svg" viewBox="0 0 32.02 23.12">
  <defs>
    <style>
      .cls-1 {
        fill: #fff;
      }
    </style>
  </defs>
  <path class="cls-1"
    d="M16,23.12h0c-1,0-9.5-.08-11.92-.74A4.92,4.92,0,0,1,.59,18.91,37,37,0,0,1,0,11.56,37.62,37.62,0,0,1,.59,4.22h0A5,5,0,0,1,4.07.72h0C6.47.08,15,0,16,0h0c1,0,9.52.08,11.92.74A5,5,0,0,1,31.4,4.21a36.82,36.82,0,0,1,.6,7.41,36.46,36.46,0,0,1-.59,7.3h0a5,5,0,0,1-3.48,3.48h0c-2.39.63-11,.71-11.91.71ZM3,4.86a36.68,36.68,0,0,0-.5,6.7h0a34.2,34.2,0,0,0,.5,6.7A2.45,2.45,0,0,0,4.72,20c1.79.48,8.74.63,11.28.65s9.51-.16,11.28-.63A2.42,2.42,0,0,0,29,18.28a33.65,33.65,0,0,0,.51-6.65h0A33.32,33.32,0,0,0,29,4.87h0a2.42,2.42,0,0,0-1.71-1.71c-1.78-.49-8.74-.6-11.29-.66s-9.5.16-11.28.63A2.5,2.5,0,0,0,3,4.86Zm9.81,11.75V6.5l8.75,5.06Z"
    transform="translate(0.01 0)" />
</svg>